<?xml version="1.0" standalone="no"?>
<!DOCTYPE svg PUBLIC "-//W3C//DTD SVG 20010904//EN"
 "http://www.w3.org/TR/2001/REC-SVG-20010904/DTD/svg10.dtd">
<svg version="1.0" xmlns="http://www.w3.org/2000/svg"
 width="400.000000pt" height="400.000000pt" viewBox="0 0 400.000000 400.000000"
 preserveAspectRatio="xMidYMid meet">
<metadata>
Created by potrace 1.14, written by Peter Selinger 2001-2017
</metadata>
<g transform="translate(0.000000,400.000000) scale(0.100000,-0.100000)"
fill="#000000" stroke="none">
<path d="M2011 3804 c0 -11 3 -14 6 -6 3 7 2 16 -1 19 -3 4 -6 -2 -5 -13z"/>
<path d="M2009 3779 c-1 -2 -2 -21 -3 -41 -1 -21 -4 -39 -7 -42 -2 -2 -36 -6
-75 -9 -38 -3 -82 -11 -97 -16 -16 -6 -27 -7 -27 -1 0 5 -9 14 -20 20 -16 9
-20 8 -20 -5 0 -9 5 -13 10 -10 6 3 10 3 10 -2 0 -4 -14 -14 -30 -22 -23 -10
-28 -16 -20 -25 5 -7 7 -16 3 -20 -13 -12 -11 -35 3 -47 8 -7 11 -21 8 -35 -4
-17 -1 -26 11 -30 13 -5 14 -9 3 -15 -10 -7 -11 -9 0 -9 7 0 10 -6 7 -12 -4
-7 0 -5 8 5 8 9 25 17 38 16 22 0 22 -1 4 -8 -16 -7 -17 -9 -5 -13 9 -3 7 -4
-3 -2 -10 1 -26 -5 -35 -14 -16 -15 -15 -18 7 -40 18 -19 29 -22 45 -15 25 10
69 5 61 -7 -3 -4 -19 -6 -36 -3 -20 3 -29 1 -25 -6 4 -6 -5 -13 -21 -17 -15
-4 -33 -11 -40 -16 -7 -5 -16 -7 -21 -4 -12 7 -22 -39 -12 -55 5 -7 21 -10 39
-7 24 3 28 2 20 -8 -6 -7 -8 -17 -5 -22 3 -6 -3 -12 -14 -15 -32 -8 -27 -53 8
-62 25 -7 25 -8 7 -15 -12 -5 -14 -9 -6 -9 8 -1 23 6 33 16 14 13 18 13 18 2
0 -12 2 -12 9 0 6 9 43 14 137 17 87 2 119 0 99 -6 -26 -8 -23 -9 22 -7 40 2
49 -1 41 -10 -15 -18 -2 -16 16 3 15 14 16 14 16 -5 0 -16 -6 -21 -25 -21 -14
0 -25 5 -25 10 0 12 -50 13 -69 1 -9 -6 -19 -5 -26 2 -10 10 -9 13 4 19 11 4
7 6 -11 5 -19 -1 -24 -5 -18 -13 6 -6 6 -15 2 -19 -4 -5 -1 -5 6 -1 6 4 12 2
12 -4 0 -7 -13 -10 -34 -7 -19 3 -40 0 -47 -7 -9 -8 -10 -8 -4 4 7 12 6 13 -6
4 -23 -18 -121 -44 -116 -31 2 6 18 14 36 18 41 8 47 15 21 22 -11 3 -18 1
-14 -4 3 -5 -3 -9 -14 -9 -10 0 -28 -11 -40 -25 l-22 -25 23 0 c12 0 17 -4 12
-8 -6 -4 -10 -14 -10 -22 0 -8 -6 -20 -14 -26 -10 -8 -11 -16 -4 -30 6 -10 8
-25 6 -32 -3 -7 -1 -20 3 -30 9 -20 11 -28 13 -43 1 -8 5 -8 14 0 10 8 14 7
14 -4 0 -7 -3 -13 -6 -12 -12 3 -61 -36 -61 -49 0 -7 16 -21 35 -30 19 -9 35
-19 35 -23 0 -25 -23 -80 -35 -85 -8 -3 -15 -13 -15 -21 0 -9 5 -13 10 -10 16
10 12 -35 -5 -51 -16 -17 -20 -44 -6 -44 5 0 11 -9 14 -20 3 -12 1 -18 -5 -14
-7 5 -8 -2 -3 -22 4 -16 7 -36 6 -44 -9 -70 -7 -75 27 -74 17 1 32 0 32 -3 0
-8 -28 -33 -37 -33 -17 0 -72 -61 -67 -74 8 -21 34 -28 50 -15 9 8 14 8 14 1
0 -6 -5 -14 -11 -17 -6 -4 -8 -13 -5 -20 3 -8 0 -16 -7 -19 -7 -2 1 -5 16 -5
37 -1 31 -24 -9 -32 l-29 -7 28 -1 c15 0 27 -7 27 -14 0 -10 25 -12 108 -9 59
2 112 8 117 13 7 5 12 -2 13 -19 2 -20 -1 -23 -10 -14 -7 7 -17 12 -23 12 -5
0 -3 -5 5 -10 13 -8 12 -10 -2 -10 -10 0 -18 5 -18 11 0 8 -6 7 -17 -2 -11
-10 -14 -10 -9 -1 4 7 1 12 -9 12 -10 0 -13 -5 -9 -12 6 -10 4 -10 -8 0 -9 7
-19 9 -22 4 -6 -11 -36 -9 -55 3 -9 5 -12 4 -8 -2 6 -9 -37 -14 -123 -14 -22
0 -30 -3 -21 -8 8 -5 10 -14 6 -21 -4 -6 1 -20 11 -31 15 -16 15 -19 2 -19
-25 0 -29 -28 -8 -43 22 -15 17 -27 -11 -27 -9 0 -20 -8 -23 -17 -9 -22 18
-43 47 -37 12 2 25 -2 29 -9 5 -8 8 -7 8 6 0 14 4 16 19 8 10 -6 21 -8 24 -5
3 3 3 -3 0 -14 -6 -23 -40 -36 -47 -18 -2 6 -5 -2 -5 -17 -1 -20 -5 -26 -13
-21 -9 5 -9 2 1 -9 12 -15 11 -17 -8 -17 -28 0 -50 -46 -49 -101 0 -24 -3 -53
-7 -63 -6 -13 -4 -21 3 -24 18 -6 15 -38 -8 -84 -11 -22 -17 -46 -13 -52 3 -6
3 -8 -2 -4 -17 16 -42 -58 -52 -151 -5 -58 30 -284 48 -307 5 -6 6 -13 3 -17
-3 -3 1 -16 9 -29 9 -12 29 -57 45 -98 17 -41 62 -147 102 -235 40 -88 89
-211 109 -274 l37 -114 32 90 c18 50 53 129 77 177 25 48 45 93 45 101 0 7 4
15 9 17 5 1 11 12 13 23 1 11 7 23 12 27 5 3 11 15 12 25 12 85 16 103 24 98
5 -3 6 -13 3 -22 -4 -11 -3 -14 6 -9 6 4 9 16 6 27 -4 10 -1 27 5 36 11 17 11
17 6 0 -3 -10 -2 -16 3 -13 12 8 25 67 35 161 3 22 5 40 6 40 1 0 3 17 4 37 1
20 4 39 7 42 6 6 8 -8 10 -59 1 -51 17 -7 33 90 21 136 15 265 -19 352 -15 40
-31 70 -36 68 -4 -3 -6 4 -4 16 7 34 7 340 1 347 -3 3 -6 -2 -6 -11 0 -12 -9
-17 -32 -17 -29 0 -30 1 -13 14 11 8 16 19 12 30 -5 11 -3 15 5 10 8 -5 9 0 5
17 -4 13 -7 30 -7 37 0 7 -4 11 -9 7 -5 -3 -13 -1 -16 5 -4 6 -1 9 7 8 8 -2
12 4 10 16 -2 11 1 15 7 11 6 -3 11 -1 11 5 0 7 8 9 20 5 11 -4 20 -2 20 4 0
6 -6 11 -14 11 -7 0 -19 7 -26 15 -7 8 -34 18 -61 21 -57 8 -65 19 -14 19 19
0 35 -3 35 -7 0 -4 12 -8 28 -10 16 -2 26 -8 24 -16 -2 -10 2 -10 17 -2 31 16
34 29 9 39 -13 4 -22 11 -20 15 5 14 1 26 -9 26 -6 0 -9 -6 -6 -14 5 -14 -10
-36 -25 -36 -12 0 -9 33 5 51 7 9 19 14 27 12 12 -4 13 -3 1 5 -8 6 -10 15 -6
23 6 9 3 11 -10 5 -15 -5 -16 -4 -6 8 7 8 10 24 6 35 -5 16 0 24 20 33 33 15
29 43 -7 43 -16 0 -24 4 -21 11 7 18 -36 39 -50 25 -6 -6 -18 -11 -26 -11 -9
0 18 19 59 43 79 45 97 73 45 71 -16 0 -38 -4 -47 -8 -13 -6 -18 -4 -18 9 0
10 -5 14 -12 9 -7 -4 -5 2 5 13 18 21 23 38 7 28 -5 -3 -3 7 5 22 13 25 13 29
-2 40 -9 7 -20 10 -24 7 -5 -3 -15 -2 -21 3 -7 4 -22 8 -32 8 -11 0 -21 5 -23
10 -1 6 12 10 31 10 19 0 32 -3 29 -7 -7 -13 6 -9 33 8 25 17 30 51 9 66 -6 5
-4 18 7 35 18 31 7 70 -15 57 -7 -4 -2 4 9 17 22 25 29 63 9 56 -9 -4 -15 17
-18 70 0 7 -5 9 -10 6 -13 -8 -77 -22 -77 -16 0 16 23 43 38 43 20 1 62 30 43
30 -10 0 -11 3 -2 14 9 11 9 15 -1 19 -10 4 -10 6 0 6 6 1 12 5 12 10 0 5 -6
9 -12 8 -38 -1 -68 4 -68 12 0 5 18 8 40 7 22 -1 46 1 53 6 9 6 9 8 0 8 -7 0
-13 6 -13 13 0 7 -5 18 -12 25 -16 16 -19 42 -5 36 7 -2 29 2 51 10 37 13 38
13 12 20 -14 3 -26 11 -26 17 0 6 7 8 16 5 8 -3 12 -2 9 4 -9 15 -26 12 -40
-7 -11 -15 -12 -12 -9 19 4 33 2 36 -17 31 -15 -4 -17 -8 -8 -14 8 -4 10 -11
6 -15 -11 -12 -37 -14 -37 -3 0 5 -11 9 -25 9 -14 0 -25 5 -25 11 0 5 5 7 10
4 6 -4 18 -1 27 7 9 7 14 8 10 2 -4 -7 8 -5 28 4 19 9 32 19 29 23 -2 4 5 17
16 27 l21 20 -30 -4 c-27 -3 -30 -1 -27 19 3 12 5 25 5 29 1 3 10 4 22 1 14
-4 18 -11 14 -22 -5 -12 -4 -13 6 -4 9 9 9 16 1 26 -9 10 -6 13 18 11 39 -3
53 -13 45 -33 -4 -11 -3 -13 5 -5 14 14 2 44 -17 44 -8 0 -11 5 -8 10 4 6 10
8 14 6 9 -6 8 40 -1 50 -5 4 -8 0 -8 -9 0 -9 -5 -17 -11 -17 -6 0 -9 7 -5 15
6 16 -9 21 -19 6 -3 -5 4 -16 16 -24 15 -11 17 -17 8 -23 -7 -4 -15 -2 -17 4
-2 7 -7 10 -11 8 -4 -3 -8 11 -8 30 0 29 3 35 19 31 10 -3 16 -1 12 4 -8 14
-44 11 -44 -4 0 -8 -7 -14 -15 -14 -11 0 -12 4 -4 13 6 7 10 26 9 41 -4 50 0
61 20 66 11 3 20 13 20 22 0 9 -6 15 -12 12 -7 -2 -12 -10 -11 -16 2 -6 -4
-11 -12 -11 -8 0 -15 5 -15 10 0 6 -6 10 -14 10 -8 0 -17 4 -21 9 -5 9 14 9
40 -1 6 -1 11 0 13 5 1 4 0 7 -3 7 -3 -1 -13 6 -22 15 -8 9 -22 14 -30 11 -8
-3 -12 -2 -9 3 3 4 -19 12 -49 18 -30 5 -52 7 -50 3 2 -3 -4 -6 -14 -6 -14 0
-18 10 -20 50 -2 43 -8 71 -12 55z m-242 -143 c0 -8 -6 -12 -14 -9 -7 3 -10 9
-7 14 8 14 21 11 21 -5z m231 -1 c26 2 30 0 21 -11 -13 -16 -23 -19 -14 -4 3
6 2 10 -4 10 -5 0 -13 -4 -16 -10 -11 -17 -32 -11 -38 11 -4 14 -2 18 6 11 7
-5 27 -8 45 -7z m-227 -78 c-10 -9 -11 -8 -5 6 3 10 9 15 12 12 3 -3 0 -11 -7
-18z m216 -74 c2 -5 -15 -10 -39 -11 -37 -2 -40 0 -24 11 21 15 58 15 63 0z
m133 -59 c0 -8 -19 -13 -24 -6 -3 5 1 9 9 9 8 0 15 -2 15 -3z m50 -44 c0 -5
-5 -10 -11 -10 -5 0 -7 5 -4 10 3 6 8 10 11 10 2 0 4 -4 4 -10z m-305 -748
c-16 -2 -33 -9 -37 -15 -5 -8 -8 -6 -8 5 0 18 25 27 55 19 16 -5 14 -7 -10 -9z
m80 8 c8 -13 -5 -13 -25 0 -13 8 -13 10 2 10 9 0 20 -4 23 -10z m111 -23 c4
-4 -2 -7 -14 -7 -12 0 -22 4 -22 9 0 10 26 9 36 -2z m-102 -462 c-4 -8 -16
-15 -28 -15 -20 0 -20 1 4 14 14 8 26 14 27 15 1 1 0 -6 -3 -14z m182 -52 c-3
-4 -6 -1 -6 6 0 7 -4 9 -10 6 -6 -4 -7 1 -3 11 6 15 7 15 15 -1 6 -9 7 -19 4
-22z m160 9 c-10 -2 -22 0 -28 6 -6 6 0 7 19 4 21 -5 23 -7 9 -10z m-17 -309
c-1 -25 -3 -30 -6 -15 -4 19 -7 21 -19 11 -12 -10 -13 -9 -7 7 5 16 21 33 31
34 1 0 1 -17 1 -37z m-278 -21 c-7 -2 -18 1 -23 6 -8 8 -4 9 13 5 13 -4 18 -8
10 -11z m79 4 c0 -3 -4 -8 -10 -11 -5 -3 -10 -1 -10 4 0 6 5 11 10 11 6 0 10
-2 10 -4z m195 -64 c2 -12 0 -24 -6 -27 -5 -4 -9 8 -9 26 0 35 8 35 15 1z
m-174 -125 c-7 -17 -17 -25 -31 -24 -25 2 -25 1 7 31 32 30 37 28 24 -7z
m-181 -12 c-7 -9 -15 -13 -19 -10 -3 3 1 10 9 15 21 14 24 12 10 -5z m87 -11
c-9 -9 -28 6 -21 18 4 6 10 6 17 -1 6 -6 8 -13 4 -17z m220 -689 c0 -8 -4 -12
-9 -9 -5 3 -6 10 -3 15 9 13 12 11 12 -6z"/>
<path d="M1765 3730 c-4 -7 -1 -16 6 -21 17 -10 26 8 11 23 -6 6 -12 6 -17 -2z"/>
<path d="M1609 3469 c-9 -5 -9 -9 -2 -9 6 0 18 -3 27 -6 9 -3 16 -2 16 4 0 15
-25 21 -41 11z"/>
<path d="M1714 3445 c-4 -16 -13 -25 -28 -26 -19 -1 -18 -2 4 -8 15 -4 28 -3
32 3 5 7 8 6 8 -3 0 -8 3 -11 6 -8 4 4 1 14 -7 24 -8 9 -9 14 -2 10 17 -11 23
6 7 21 -11 10 -15 8 -20 -13z"/>
<path d="M1602 3400 c0 -14 2 -19 5 -12 2 6 2 18 0 25 -3 6 -5 1 -5 -13z"/>
<path d="M1750 3390 c0 -6 7 -10 15 -10 8 0 15 2 15 4 0 2 -7 6 -15 10 -8 3
-15 1 -15 -4z"/>
<path d="M1646 3371 c8 -8 53 -7 48 1 -3 4 -16 7 -29 6 -13 -1 -22 -4 -19 -7z"/>
<path d="M1606 3354 c-9 -24 -2 -26 12 -4 7 11 8 20 3 20 -5 0 -12 -7 -15 -16z"/>
<path d="M1653 3323 c15 -2 37 -2 50 0 12 2 0 4 -28 4 -27 0 -38 -2 -22 -4z"/>
<path d="M2291 3314 c0 -11 3 -14 6 -6 3 7 2 16 -1 19 -3 4 -6 -2 -5 -13z"/>
<path d="M2234 3252 c3 -5 0 -13 -6 -15 -8 -3 -6 -6 5 -6 19 -1 23 14 5 25 -6
4 -8 3 -4 -4z"/>
<path d="M2278 3223 c6 -2 12 -9 12 -14 0 -6 -6 -7 -12 -3 -10 6 -9 3 0 -9 22
-27 11 -60 -21 -64 -18 -3 -26 0 -22 7 7 12 -5 13 -23 1 -18 -11 7 -21 55 -21
30 0 34 -2 23 -15 -7 -8 -18 -15 -26 -15 -7 0 -15 -4 -19 -10 -9 -14 52 9 66
26 8 10 8 14 0 14 -7 0 -11 21 -11 55 0 46 -3 55 -17 54 -11 0 -13 -3 -5 -6z"/>
<path d="M1725 3201 c-3 -5 -2 -12 3 -15 5 -3 9 1 9 9 0 17 -3 19 -12 6z"/>
<path d="M1733 3145 c5 -27 4 -28 -9 -10 -11 15 -14 16 -14 3 0 -18 22 -30 37
-20 6 5 4 17 -5 32 l-13 25 4 -30z"/>
<path d="M1937 3163 c-4 -6 1 -14 11 -18 28 -13 42 -14 42 -4 0 5 -9 9 -19 9
-11 0 -21 5 -23 12 -3 8 -6 9 -11 1z"/>
<path d="M1858 3153 c7 -3 16 -2 19 1 4 3 -2 6 -13 5 -11 0 -14 -3 -6 -6z"/>
<path d="M1711 3098 c-1 -10 5 -18 13 -18 8 0 21 -3 30 -6 9 -3 16 -1 16 5 0
6 -11 11 -24 11 -13 0 -27 6 -29 13 -3 7 -6 5 -6 -5z"/>
<path d="M1803 2745 c0 -8 4 -12 9 -9 5 3 6 10 3 15 -9 13 -12 11 -12 -6z"/>
<path d="M1758 2213 c7 -3 16 -2 19 1 4 3 -2 6 -13 5 -11 0 -14 -3 -6 -6z"/>
<path d="M2302 2203 c-5 -10 -6 -29 -1 -43 l7 -25 1 26 c1 14 6 30 12 36 7 7
7 13 0 17 -5 4 -14 -1 -19 -11z"/>
<path d="M1716 2195 c-9 -26 -7 -32 5 -12 6 10 9 21 6 23 -2 3 -7 -2 -11 -11z"/>
<path d="M1723 2120 c-11 -16 -10 -18 2 -14 8 4 15 12 15 20 0 19 -3 18 -17
-6z"/>
<path d="M1750 2116 c0 -2 7 -7 16 -10 8 -3 12 -2 9 4 -6 10 -25 14 -25 6z"/>
<path d="M2282 1960 c0 -19 2 -27 5 -17 2 9 2 25 0 35 -3 9 -5 1 -5 -18z"/>
</g>
</svg>
